<svg aria-hidden="true" style="position: absolute; width: 0; height: 0; overflow: hidden;" version="1.1" xmlns="http://www.w3.org/2000/svg" xmlns:xlink="http://www.w3.org/1999/xlink">
<defs>
<symbol id="icon-Vector-min" viewBox="0 0 169 32">
<path d="M3.902 16.078v8.976l2.966-0.234 2.888-0.234 0.234-7.727c0.234-8.507-0.312-9.834-3.824-9.834h-2.263v9.054zM7.805 16c0 4.449-0.312 7.415-0.78 7.415s-0.78-2.966-0.78-7.415c0-4.449 0.312-7.415 0.78-7.415s0.78 2.966 0.78 7.415z"></path>
<path d="M16.546 15.766c0.156 6.088 0.546 8.819 1.249 9.054s0.937-1.873 0.937-8.741c0-7.649-0.156-9.054-1.171-9.054s-1.171 1.327-1.015 8.741z"></path>
<path d="M25.912 7.961c-1.015 1.015-1.327 13.502-0.468 15.766 0.624 1.639 4.683 1.639 5.307 0 0.234-0.702 0.468-2.81 0.468-4.683 0-2.81-0.234-3.434-1.483-3.434s-1.327 0.468-1.015 3.902c0.234 2.576 0.078 3.902-0.546 3.902-0.546 0-0.859-2.419-0.859-7.415 0-4.449 0.312-7.415 0.78-7.415s0.78 0.702 0.78 1.561c0 1.795 1.405 2.107 2.029 0.39 1.015-2.576-2.966-4.605-4.995-2.576z"></path>
<path d="M37.463 16c0 5.463 0.312 8.976 0.78 8.976s0.781-3.512 0.781-8.976c0-5.463-0.312-8.976-0.781-8.976s-0.781 3.512-0.781 8.976z"></path>
<path d="M42.146 7.805c0 0.39 0.546 0.78 1.171 0.78 0.937 0 1.171 1.405 1.171 8.195s0.234 8.195 1.171 8.195c0.937 0 1.171-1.405 1.171-8.195 0-6.634 0.234-8.195 1.093-8.195 0.624 0 1.405-0.39 1.639-0.78 0.312-0.468-1.015-0.78-3.434-0.78-2.185 0-3.98 0.312-3.98 0.78z"></path>
<path d="M57.366 9.522c-2.029 11.083-2.498 15.454-1.561 15.454 1.015 0 1.951-3.356 1.951-7.102 0-4.371 1.405-2.888 1.951 2.029 0.39 3.746 0.859 5.073 1.639 5.073s1.015-0.468 0.78-1.405c-0.234-0.702-0.781-4.137-1.249-7.571s-1.015-6.868-1.249-7.649c-0.624-2.107-1.795-1.561-2.263 1.171z"></path>
<path d="M69.463 16v8.976h2.654c3.278 0 4.449-1.327 1.483-1.717l-2.185-0.234-0.234-8.039c-0.312-11.005-1.717-10.224-1.717 1.015z"></path>
<path d="M88.976 15.922c0 5.541 0.312 9.054 0.781 9.054s0.781-1.639 0.781-3.746c0-3.044 0.312-3.824 1.795-4.449 1.483-0.702 1.717-1.405 1.717-5.073 0-4.293 0-4.293-2.498-4.527l-2.576-0.234v8.976zM92.722 11.941c0.156 2.185-0.078 2.888-0.937 2.888-0.937 0-1.249-0.859-1.249-3.2 0-4.059 1.873-3.746 2.185 0.312z"></path>
<path d="M100.683 15.922c0 5.541 0.312 9.054 0.781 9.054s0.781-1.795 0.781-3.98c0-5.151 1.873-4.839 2.185 0.312 0.156 2.029 0.546 3.668 1.015 3.668s0.702-3.434 0.546-8.819l-0.234-8.741-2.498-0.234-2.576-0.234v8.976zM104.585 12.566c0 2.185-0.312 3.044-1.171 3.044s-1.171-0.859-1.171-2.966c0-1.639 0.234-3.278 0.468-3.512 1.093-1.015 1.873 0.468 1.873 3.434z"></path>
<path d="M113.561 8.039c-0.234 0.546-0.312 4.527-0.234 8.819l0.234 7.727h4.683v-17.171l-2.185-0.234c-1.249-0.156-2.263 0.156-2.498 0.859zM117.073 16c0 6.088-0.234 7.415-1.171 7.415s-1.171-1.327-1.171-7.415c0-6.088 0.234-7.415 1.171-7.415s1.171 1.327 1.171 7.415z"></path>
<path d="M128.78 15.22c0 6.79-0.234 8.195-1.171 8.195-0.624 0-1.171-0.624-1.171-1.327 0-1.015-0.234-1.093-0.859-0.468-1.561 1.561-0.156 3.512 2.185 3.2l2.185-0.234 0.234-8.819c0.156-5.62-0.078-8.741-0.624-8.741-0.468 0-0.78 3.044-0.78 8.195z"></path>
<path d="M135.024 16v8.976h2.263c1.327 0 2.576-0.312 2.81-0.78 0.312-0.468-0.39-0.78-1.483-0.78-1.873 0-2.029-0.234-2.029-3.434 0-2.81 0.312-3.512 1.795-3.98l1.717-0.624-1.717-0.312c-1.483-0.312-1.795-0.859-1.795-3.434 0-2.498 0.234-3.044 1.483-3.044 0.859 0 1.795-0.39 2.029-0.78 0.312-0.468-0.624-0.78-2.263-0.78h-2.81v8.976z"></path>
<path d="M147.122 8.039c-0.234 0.546-0.312 4.527-0.234 8.819l0.234 7.727h2.341c2.185 0 2.341-0.234 2.576-3.044 0.156-1.951 0-2.81-0.546-2.419-0.468 0.234-0.859 1.327-0.859 2.419 0 1.171-0.468 1.873-1.171 1.873-0.937 0-1.171-1.327-1.171-7.415s0.234-7.415 1.171-7.415c0.78 0 1.171 0.78 1.171 2.341 0 1.249 0.39 2.341 0.859 2.341s0.702-1.249 0.546-2.966c-0.234-2.498-0.546-2.888-2.419-3.122-1.249-0.156-2.263 0.156-2.498 0.859z"></path>
<path d="M155.317 7.805c0 0.39 0.546 0.78 1.171 0.78 0.937 0 1.171 1.405 1.171 8.195 0 4.917 0.312 8.195 0.78 8.195s0.78-3.122 0.78-7.805c0-7.649 0.078-7.883 1.951-8.585 2.966-1.093 2.341-1.561-1.951-1.561-2.107 0-3.902 0.312-3.902 0.78z"></path>
</symbol>
<symbol id="icon-logo" viewBox="0 0 53 32">
<path d="M34.007 16.079l0.974 2.248c0.18 0.414 0.676 0.61 1.108 0.438 0.433-0.17 0.639-0.645 0.459-1.059l-0.974-2.247-1.568 0.62z"></path>
<path d="M34.657 17.578v0z"></path>
<path d="M31.952 11.335v0z"></path>
<path d="M33.158 6.778c0 1.194-1.012 2.163-2.261 2.163-1.25 0-2.262-0.968-2.262-2.163s1.013-2.162 2.262-2.162c1.248 0 2.261 0.968 2.261 2.162z"></path>
<path d="M32.027 6.778c0 0.598-0.506 1.082-1.13 1.082s-1.132-0.484-1.132-1.082c0-0.597 0.507-1.081 1.132-1.081s1.13 0.484 1.13 1.081z"></path>
<path d="M29.311 8.32l-3.094 7.139-0.776 3.204 0.522 0.207 1.821-2.79 0.433-0.999c-0.338-0.781 0.049-1.676 0.866-1.999l1.794-4.142c-0.61-0.005-1.162-0.241-1.567-0.62z"></path>
<path d="M32.482 8.319c-0.405 0.38-0.957 0.616-1.568 0.621l2.661 6.14 1.567-0.62-2.66-6.14z"></path>
<path d="M31.745 3.535v-2.433c-0-0.448-0.381-0.811-0.848-0.811-0.468 0-0.848 0.362-0.848 0.811l0 2.433h1.696z"></path>
<path d="M30.897 4.616c0.145 0 0.286 0.014 0.423 0.039v-1.12h-0.848v1.12c0.138-0.025 0.279-0.039 0.425-0.039z"></path>
<path d="M19.121 19.764h-2.821v-19.474h2.822c0.623 0 1.128 0.485 1.128 1.082v17.311h-0c-0 0.598-0.505 1.081-1.129 1.081z"></path>
<path d="M18.98 1.913c0.234 0 0.423-0.182 0.423-0.406s-0.19-0.406-0.423-0.406c-0.234 0-0.423 0.182-0.423 0.406s0.189 0.406 0.423 0.406z"></path>
<path d="M22.224 11.786c0 0.223 0.19 0.406 0.423 0.406s0.423-0.182 0.423-0.406c0 0.223 0.19 0.406 0.423 0.406s0.423-0.182 0.423-0.406c0 0.223-0.189 0.406-0.423 0.406s-0.423-0.182-0.423-0.406c0 0.223-0.189 0.406-0.423 0.406s-0.423-0.182-0.423-0.406z"></path>
<path d="M22.789 0.29c-0.311 0-0.564 0.243-0.564 0.542v-0 11.36l0.846 3.246 0.847-3.246v-11.36c0-0.298-0.253-0.541-0.564-0.541l-0.564-0z"></path>
</symbol>
<symbol id="icon-office" viewBox="0 0 32 32">
<path d="M0 32h16v-32h-16v32zM10 4h4v4h-4v-4zM10 12h4v4h-4v-4zM10 20h4v4h-4v-4zM2 4h4v4h-4v-4zM2 12h4v4h-4v-4zM2 20h4v4h-4v-4zM18 10h14v2h-14zM18 32h4v-8h6v8h4v-18h-14z"></path>
</symbol>
<symbol id="icon-cart" viewBox="0 0 32 32">
<path d="M12 29c0 1.657-1.343 3-3 3s-3-1.343-3-3c0-1.657 1.343-3 3-3s3 1.343 3 3z"></path>
<path d="M32 29c0 1.657-1.343 3-3 3s-3-1.343-3-3c0-1.657 1.343-3 3-3s3 1.343 3 3z"></path>
<path d="M32 16v-12h-24c0-1.105-0.895-2-2-2h-6v2h4l1.502 12.877c-0.915 0.733-1.502 1.859-1.502 3.123 0 2.209 1.791 4 4 4h24v-2h-24c-1.105 0-2-0.895-2-2 0-0.007 0-0.014 0-0.020l26-3.98z"></path>
</symbol>
<symbol id="icon-coin-dollar" viewBox="0 0 32 32">
<path d="M15 2c-8.284 0-15 6.716-15 15s6.716 15 15 15c8.284 0 15-6.716 15-15s-6.716-15-15-15zM15 29c-6.627 0-12-5.373-12-12s5.373-12 12-12c6.627 0 12 5.373 12 12s-5.373 12-12 12zM16 16v-4h4v-2h-4v-2h-2v2h-4v8h4v4h-4v2h4v2h2v-2h4l-0-8h-4zM14 16h-2v-4h2v4zM18 22h-2v-4h2v4z"></path>
</symbol>
<symbol id="icon-phone" viewBox="0 0 32 32">
<path d="M22 20c-2 2-2 4-4 4s-4-2-6-4-4-4-4-6 2-2 4-4-4-8-6-8-6 6-6 6c0 4 4.109 12.109 8 16s12 8 16 8c0 0 6-4 6-6s-6-8-8-6z"></path>
</symbol>
<symbol id="icon-address-book" viewBox="0 0 32 32">
<path d="M6 0v32h24v-32h-24zM18 8.010c2.203 0 3.99 1.786 3.99 3.99s-1.786 3.99-3.99 3.99-3.99-1.786-3.99-3.99 1.786-3.99 3.99-3.99v0zM24 24h-12v-2c0-2.209 1.791-4 4-4v0h4c2.209 0 4 1.791 4 4v2z"></path>
<path d="M2 2h3v6h-3v-6z"></path>
<path d="M2 10h3v6h-3v-6z"></path>
<path d="M2 18h3v6h-3v-6z"></path>
<path d="M2 26h3v6h-3v-6z"></path>
</symbol>
<symbol id="icon-envelop" viewBox="0 0 32 32">
<path d="M29 4h-26c-1.65 0-3 1.35-3 3v20c0 1.65 1.35 3 3 3h26c1.65 0 3-1.35 3-3v-20c0-1.65-1.35-3-3-3zM12.461 17.199l-8.461 6.59v-15.676l8.461 9.086zM5.512 8h20.976l-10.488 7.875-10.488-7.875zM12.79 17.553l3.21 3.447 3.21-3.447 6.58 8.447h-19.579l6.58-8.447zM19.539 17.199l8.461-9.086v15.676l-8.461-6.59z"></path>
</symbol>
<symbol id="icon-location2" viewBox="0 0 32 32">
<path d="M16 0c-5.523 0-10 4.477-10 10 0 10 10 22 10 22s10-12 10-22c0-5.523-4.477-10-10-10zM16 16.125c-3.383 0-6.125-2.742-6.125-6.125s2.742-6.125 6.125-6.125 6.125 2.742 6.125 6.125-2.742 6.125-6.125 6.125zM12.125 10c0-2.14 1.735-3.875 3.875-3.875s3.875 1.735 3.875 3.875c0 2.14-1.735 3.875-3.875 3.875s-3.875-1.735-3.875-3.875z"></path>
</symbol>
<symbol id="icon-mobile" viewBox="0 0 32 32">
<path d="M23 0h-14c-1.65 0-3 1.35-3 3v26c0 1.65 1.35 3 3 3h14c1.65 0 3-1.35 3-3v-26c0-1.65-1.35-3-3-3zM12 1.5h8v1h-8v-1zM16 30c-1.105 0-2-0.895-2-2s0.895-2 2-2 2 0.895 2 2-0.895 2-2 2zM24 24h-16v-20h16v20z"></path>
</symbol>
<symbol id="icon-user" viewBox="0 0 32 32">
<path d="M18 22.082v-1.649c2.203-1.241 4-4.337 4-7.432 0-4.971 0-9-6-9s-6 4.029-6 9c0 3.096 1.797 6.191 4 7.432v1.649c-6.784 0.555-12 3.888-12 7.918h28c0-4.030-5.216-7.364-12-7.918z"></path>
</symbol>
<symbol id="icon-cross" viewBox="0 0 32 32">
<path d="M31.708 25.708c-0-0-0-0-0-0l-9.708-9.708 9.708-9.708c0-0 0-0 0-0 0.105-0.105 0.18-0.227 0.229-0.357 0.133-0.356 0.057-0.771-0.229-1.057l-4.586-4.586c-0.286-0.286-0.702-0.361-1.057-0.229-0.13 0.048-0.252 0.124-0.357 0.228 0 0-0 0-0 0l-9.708 9.708-9.708-9.708c-0-0-0-0-0-0-0.105-0.104-0.227-0.18-0.357-0.228-0.356-0.133-0.771-0.057-1.057 0.229l-4.586 4.586c-0.286 0.286-0.361 0.702-0.229 1.057 0.049 0.13 0.124 0.252 0.229 0.357 0 0 0 0 0 0l9.708 9.708-9.708 9.708c-0 0-0 0-0 0-0.104 0.105-0.18 0.227-0.229 0.357-0.133 0.355-0.057 0.771 0.229 1.057l4.586 4.586c0.286 0.286 0.702 0.361 1.057 0.229 0.13-0.049 0.252-0.124 0.357-0.229 0-0 0-0 0-0l9.708-9.708 9.708 9.708c0 0 0 0 0 0 0.105 0.105 0.227 0.18 0.357 0.229 0.356 0.133 0.771 0.057 1.057-0.229l4.586-4.586c0.286-0.286 0.362-0.702 0.229-1.057-0.049-0.13-0.124-0.252-0.229-0.357z"></path>
</symbol>
<symbol id="icon-checkmark" viewBox="0 0 32 32">
<path d="M27 4l-15 15-7-7-5 5 12 12 20-20z"></path>
</symbol>
<symbol id="icon-checkmark2" viewBox="0 0 32 32">
<path d="M12.42 28.678l-12.433-12.238 6.168-6.071 6.265 6.167 13.426-13.214 6.168 6.071-19.594 19.285zM3.372 16.441l9.048 8.905 16.208-15.953-2.782-2.739-13.426 13.214-6.265-6.167-2.782 2.739z"></path>
</symbol>
<symbol id="icon-arrow-right" viewBox="0 0 32 32">
<path d="M31 16l-15-15v9h-16v12h16v9z"></path>
</symbol>
<symbol id="icon-arrow-left" viewBox="0 0 32 32">
<path d="M1 16l15 15v-9h16v-12h-16v-9z"></path>
</symbol>
<symbol id="icon-arrow-right2" viewBox="0 0 32 32">
<path d="M19.414 27.414l10-10c0.781-0.781 0.781-2.047 0-2.828l-10-10c-0.781-0.781-2.047-0.781-2.828 0s-0.781 2.047 0 2.828l6.586 6.586h-19.172c-1.105 0-2 0.895-2 2s0.895 2 2 2h19.172l-6.586 6.586c-0.39 0.39-0.586 0.902-0.586 1.414s0.195 1.024 0.586 1.414c0.781 0.781 2.047 0.781 2.828 0z"></path>
</symbol>
<symbol id="icon-arrow-left2" viewBox="0 0 32 32">
<path d="M12.586 27.414l-10-10c-0.781-0.781-0.781-2.047 0-2.828l10-10c0.781-0.781 2.047-0.781 2.828 0s0.781 2.047 0 2.828l-6.586 6.586h19.172c1.105 0 2 0.895 2 2s-0.895 2-2 2h-19.172l6.586 6.586c0.39 0.39 0.586 0.902 0.586 1.414s-0.195 1.024-0.586 1.414c-0.781 0.781-2.047 0.781-2.828 0z"></path>
</symbol>
<symbol id="icon-circle-right" viewBox="0 0 32 32">
<path d="M16 0c-8.837 0-16 7.163-16 16s7.163 16 16 16 16-7.163 16-16-7.163-16-16-16zM16 29c-7.18 0-13-5.82-13-13s5.82-13 13-13 13 5.82 13 13-5.82 13-13 13z"></path>
<path d="M11.086 22.086l2.829 2.829 8.914-8.914-8.914-8.914-2.828 2.828 6.086 6.086z"></path>
</symbol>
<symbol id="icon-circle-left" viewBox="0 0 32 32">
<path d="M16 32c8.837 0 16-7.163 16-16s-7.163-16-16-16-16 7.163-16 16 7.163 16 16 16zM16 3c7.18 0 13 5.82 13 13s-5.82 13-13 13-13-5.82-13-13 5.82-13 13-13z"></path>
<path d="M20.914 9.914l-2.829-2.829-8.914 8.914 8.914 8.914 2.828-2.828-6.086-6.086z"></path>
</symbol>
<symbol id="icon-facebook" viewBox="0 0 32 32">
<path d="M19 6h5v-6h-5c-3.86 0-7 3.14-7 7v3h-4v6h4v16h6v-16h5l1-6h-6v-3c0-0.542 0.458-1 1-1z"></path>
</symbol>
<symbol id="icon-twitter" viewBox="0 0 32 32">
<path d="M32 7.075c-1.175 0.525-2.444 0.875-3.769 1.031 1.356-0.813 2.394-2.1 2.887-3.631-1.269 0.75-2.675 1.3-4.169 1.594-1.2-1.275-2.906-2.069-4.794-2.069-3.625 0-6.563 2.938-6.563 6.563 0 0.512 0.056 1.012 0.169 1.494-5.456-0.275-10.294-2.888-13.531-6.862-0.563 0.969-0.887 2.1-0.887 3.3 0 2.275 1.156 4.287 2.919 5.463-1.075-0.031-2.087-0.331-2.975-0.819 0 0.025 0 0.056 0 0.081 0 3.181 2.263 5.838 5.269 6.437-0.55 0.15-1.131 0.231-1.731 0.231-0.425 0-0.831-0.044-1.237-0.119 0.838 2.606 3.263 4.506 6.131 4.563-2.25 1.762-5.075 2.813-8.156 2.813-0.531 0-1.050-0.031-1.569-0.094 2.913 1.869 6.362 2.95 10.069 2.95 12.075 0 18.681-10.006 18.681-18.681 0-0.287-0.006-0.569-0.019-0.85 1.281-0.919 2.394-2.075 3.275-3.394z"></path>
</symbol>
<symbol id="icon-linkedin" viewBox="0 0 32 32">
<path d="M29 0h-26c-1.65 0-3 1.35-3 3v26c0 1.65 1.35 3 3 3h26c1.65 0 3-1.35 3-3v-26c0-1.65-1.35-3-3-3zM12 26h-4v-14h4v14zM10 10c-1.106 0-2-0.894-2-2s0.894-2 2-2c1.106 0 2 0.894 2 2s-0.894 2-2 2zM26 26h-4v-8c0-1.106-0.894-2-2-2s-2 0.894-2 2v8h-4v-14h4v2.481c0.825-1.131 2.087-2.481 3.5-2.481 2.488 0 4.5 2.238 4.5 5v9z"></path>
</symbol>
<symbol id="icon-pinterest2" viewBox="0 0 32 32">
<path d="M16 0c-8.825 0-16 7.175-16 16s7.175 16 16 16 16-7.175 16-16-7.175-16-16-16zM16 29.863c-1.431 0-2.806-0.219-4.106-0.619 0.563-0.919 1.412-2.431 1.725-3.631 0.169-0.65 0.863-3.294 0.863-3.294 0.45 0.863 1.775 1.594 3.175 1.594 4.181 0 7.194-3.844 7.194-8.625 0-4.581-3.738-8.006-8.544-8.006-5.981 0-9.156 4.019-9.156 8.387 0 2.031 1.081 4.563 2.813 5.369 0.262 0.125 0.4 0.069 0.463-0.188 0.044-0.194 0.281-1.131 0.387-1.575 0.031-0.137 0.019-0.262-0.094-0.4-0.575-0.694-1.031-1.975-1.031-3.162 0-3.056 2.313-6.019 6.256-6.019 3.406 0 5.788 2.319 5.788 5.637 0 3.75-1.894 6.35-4.356 6.35-1.363 0-2.381-1.125-2.050-2.506 0.394-1.65 1.15-3.425 1.15-4.613 0-1.063-0.569-1.95-1.756-1.95-1.394 0-2.506 1.438-2.506 3.369 0 1.225 0.412 2.056 0.412 2.056s-1.375 5.806-1.625 6.887c-0.281 1.2-0.169 2.881-0.050 3.975-5.156-2.012-8.813-7.025-8.813-12.9 0-7.656 6.206-13.863 13.862-13.863s13.863 6.206 13.863 13.863c0 7.656-6.206 13.863-13.863 13.863z"></path>
</symbol>
<symbol id="icon-arrow-r-3" viewBox="0 0 24 24">
<path d="M3 11.5C3 11.2239 3.22386 11 3.5 11L19.5 11C19.7761 11 20 11.2239 20 11.5C20 11.7761 19.7761 12 19.5 12L3.5 12C3.22386 12 3 11.7761 3 11.5Z"/>
<path d="M15.6464 7.64645C15.8417 7.45118 16.1583 7.45118 16.3536 7.64645L20.2071 11.5L16.3536 15.3536C16.1583 15.5488 15.8417 15.5488 15.6464 15.3536C15.4512 15.1583 15.4512 14.8417 15.6464 14.6464L18.7929 11.5L15.6464 8.35355C15.4512 8.15829 15.4512 7.84171 15.6464 7.64645Z"></path>
</symbol>
<symbol id="icon-arrow-l-3" viewBox="0 0 24 24">
<path d="M21 11.5C21 11.2239 20.7761 11 20.5 11L4.5 11C4.22386 11 4 11.2239 4 11.5C4 11.7761 4.22386 12 4.5 12L20.5 12C20.7761 12 21 11.7761 21 11.5Z"/>
<path d="M8.35355 7.64645C8.15829 7.45118 7.84171 7.45118 7.64645 7.64645L3.79289 11.5L7.64645 15.3536C7.84171 15.5488 8.15829 15.5488 8.35355 15.3536C8.54882 15.1583 8.54882 14.8417 8.35355 14.6464L5.20711 11.5L8.35355 8.35355C8.54882 8.15829 8.54882 7.84171 8.35355 7.64645Z"></path>
</symbol>
</defs>
</svg>
