<svg aria-hidden="true" style="position:absolute;width:0;height:0;overflow:hidden" xmlns="http://www.w3.org/2000/svg"><defs><symbol id="icon-Vector-min" viewBox="0 0 169 32"><path d="M3.902 16.078v8.976l2.966-.234 2.888-.234.234-7.727c.234-8.507-.312-9.834-3.824-9.834H3.903v9.054zM7.805 16c0 4.449-.312 7.415-.78 7.415s-.78-2.966-.78-7.415.312-7.415.78-7.415.78 2.966.78 7.415zm8.741-.234c.156 6.088.546 8.819 1.249 9.054s.937-1.873.937-8.741c0-7.649-.156-9.054-1.171-9.054s-1.171 1.327-1.015 8.741zm9.366-7.805c-1.015 1.015-1.327 13.502-.468 15.766.624 1.639 4.683 1.639 5.307 0 .234-.702.468-2.81.468-4.683 0-2.81-.234-3.434-1.483-3.434s-1.327.468-1.015 3.902c.234 2.576.078 3.902-.546 3.902-.546 0-.859-2.419-.859-7.415 0-4.449.312-7.415.78-7.415s.78.702.78 1.561c0 1.795 1.405 2.107 2.029.39 1.015-2.576-2.966-4.605-4.995-2.576zM37.463 16c0 5.463.312 8.976.78 8.976s.781-3.512.781-8.976c0-5.463-.312-8.976-.781-8.976s-.781 3.512-.781 8.976zm4.683-8.195c0 .39.546.78 1.171.78.937 0 1.171 1.405 1.171 8.195s.234 8.195 1.171 8.195 1.171-1.405 1.171-8.195c0-6.634.234-8.195 1.093-8.195.624 0 1.405-.39 1.639-.78.312-.468-1.015-.78-3.434-.78-2.185 0-3.98.312-3.98.78zm15.22 1.717c-2.029 11.083-2.498 15.454-1.561 15.454 1.015 0 1.951-3.356 1.951-7.102 0-4.371 1.405-2.888 1.951 2.029.39 3.746.859 5.073 1.639 5.073s1.015-.468.78-1.405c-.234-.702-.781-4.137-1.249-7.571s-1.015-6.868-1.249-7.649c-.624-2.107-1.795-1.561-2.263 1.171zM69.463 16v8.976h2.654c3.278 0 4.449-1.327 1.483-1.717l-2.185-.234-.234-8.039c-.312-11.005-1.717-10.224-1.717 1.015zm19.513-.078c0 5.541.312 9.054.781 9.054s.781-1.639.781-3.746c0-3.044.312-3.824 1.795-4.449 1.483-.702 1.717-1.405 1.717-5.073 0-4.293 0-4.293-2.498-4.527l-2.576-.234v8.976zm3.746-3.981c.156 2.185-.078 2.888-.937 2.888-.937 0-1.249-.859-1.249-3.2 0-4.059 1.873-3.746 2.185.312zm7.961 3.981c0 5.541.312 9.054.781 9.054s.781-1.795.781-3.98c0-5.151 1.873-4.839 2.185.312.156 2.029.546 3.668 1.015 3.668s.702-3.434.546-8.819l-.234-8.741-2.498-.234-2.576-.234v8.976zm3.902-3.356c0 2.185-.312 3.044-1.171 3.044s-1.171-.859-1.171-2.966c0-1.639.234-3.278.468-3.512 1.093-1.015 1.873.468 1.873 3.434zm8.976-4.527c-.234.546-.312 4.527-.234 8.819l.234 7.727h4.683V7.414l-2.185-.234c-1.249-.156-2.263.156-2.498.859zM117.073 16c0 6.088-.234 7.415-1.171 7.415s-1.171-1.327-1.171-7.415.234-7.415 1.171-7.415 1.171 1.327 1.171 7.415zm11.707-.78c0 6.79-.234 8.195-1.171 8.195-.624 0-1.171-.624-1.171-1.327 0-1.015-.234-1.093-.859-.468-1.561 1.561-.156 3.512 2.185 3.2l2.185-.234.234-8.819c.156-5.62-.078-8.741-.624-8.741-.468 0-.78 3.044-.78 8.195zm6.244.78v8.976h2.263c1.327 0 2.576-.312 2.81-.78.312-.468-.39-.78-1.483-.78-1.873 0-2.029-.234-2.029-3.434 0-2.81.312-3.512 1.795-3.98l1.717-.624-1.717-.312c-1.483-.312-1.795-.859-1.795-3.434 0-2.498.234-3.044 1.483-3.044.859 0 1.795-.39 2.029-.78.312-.468-.624-.78-2.263-.78h-2.81v8.976zm12.098-7.961c-.234.546-.312 4.527-.234 8.819l.234 7.727h2.341c2.185 0 2.341-.234 2.576-3.044.156-1.951 0-2.81-.546-2.419-.468.234-.859 1.327-.859 2.419 0 1.171-.468 1.873-1.171 1.873-.937 0-1.171-1.327-1.171-7.415s.234-7.415 1.171-7.415c.78 0 1.171.78 1.171 2.341 0 1.249.39 2.341.859 2.341s.702-1.249.546-2.966c-.234-2.498-.546-2.888-2.419-3.122-1.249-.156-2.263.156-2.498.859zm8.195-.234c0 .39.546.78 1.171.78.937 0 1.171 1.405 1.171 8.195 0 4.917.312 8.195.78 8.195s.78-3.122.78-7.805c0-7.649.078-7.883 1.951-8.585 2.966-1.093 2.341-1.561-1.951-1.561-2.107 0-3.902.312-3.902.78z"/></symbol><symbol id="icon-logo" viewBox="0 0 53 32"><path d="m34.007 16.079.974 2.248c.18.414.676.61 1.108.438a.797.797 0 0 0 .459-1.059l-.974-2.247-1.568.62zm.65 1.499zm-2.705-6.243zm1.206-4.557c0 1.194-1.012 2.163-2.261 2.163-1.25 0-2.262-.968-2.262-2.163s1.013-2.162 2.262-2.162c1.248 0 2.261.968 2.261 2.162z"/><path d="M32.027 6.778c0 .598-.506 1.082-1.13 1.082s-1.132-.484-1.132-1.082c0-.597.507-1.081 1.132-1.081s1.13.484 1.13 1.081zM29.311 8.32l-3.094 7.139-.776 3.204.522.207 1.821-2.79.433-.999c-.338-.781.049-1.676.866-1.999l1.794-4.142a2.315 2.315 0 0 1-1.567-.62zm3.171-.001c-.405.38-.957.616-1.568.621l2.661 6.14 1.567-.62-2.66-6.14zm-.737-4.784V1.102c0-.448-.381-.811-.848-.811-.468 0-.848.362-.848.811v2.433h1.696z"/><path d="M30.897 4.616c.145 0 .286.014.423.039v-1.12h-.848v1.12c.138-.025.279-.039.425-.039zM19.121 19.764H16.3V.29h2.822c.623 0 1.128.485 1.128 1.082v17.311c0 .598-.505 1.081-1.129 1.081z"/><path d="M18.98 1.913c.234 0 .423-.182.423-.406s-.19-.406-.423-.406c-.234 0-.423.182-.423.406s.189.406.423.406zm3.244 9.873zM22.789.29a.554.554 0 0 0-.564.542v11.36l.846 3.246.847-3.246V.832a.554.554 0 0 0-.564-.541h-.564z"/></symbol><symbol id="icon-office" viewBox="0 0 32 32"><path d="M0 32h16V0H0v32zM10 4h4v4h-4V4zm0 8h4v4h-4v-4zm0 8h4v4h-4v-4zM2 4h4v4H2V4zm0 8h4v4H2v-4zm0 8h4v4H2v-4zm16-10h14v2H18zm0 22h4v-8h6v8h4V14H18z"/></symbol><symbol id="icon-cart" viewBox="0 0 32 32"><path d="M12 29a3 3 0 1 1-6 0 3 3 0 0 1 6 0zm20 0a3 3 0 1 1-6 0 3 3 0 0 1 6 0zm0-13V4H8a2 2 0 0 0-2-2H0v2h4l1.502 12.877A4 4 0 0 0 8 24h24v-2H8a2 2 0 0 1-2-2v-.02L32 16z"/></symbol><symbol id="icon-coin-dollar" viewBox="0 0 32 32"><path d="M15 2C6.716 2 0 8.716 0 17s6.716 15 15 15c8.284 0 15-6.716 15-15S23.284 2 15 2zm0 27C8.373 29 3 23.627 3 17S8.373 5 15 5s12 5.373 12 12-5.373 12-12 12zm1-13v-4h4v-2h-4V8h-2v2h-4v8h4v4h-4v2h4v2h2v-2h4v-8h-4zm-2 0h-2v-4h2v4zm4 6h-2v-4h2v4z"/></symbol><symbol id="icon-phone" viewBox="0 0 32 32"><path d="M22 20c-2 2-2 4-4 4s-4-2-6-4-4-4-4-6 2-2 4-4-4-8-6-8-6 6-6 6c0 4 4.109 12.109 8 16s12 8 16 8c0 0 6-4 6-6s-6-8-8-6z"/></symbol><symbol id="icon-address-book" viewBox="0 0 32 32"><path d="M6 0v32h24V0H6zm12 8.01a3.99 3.99 0 1 1 0 7.98 3.99 3.99 0 0 1 0-7.98zM24 24H12v-2a4 4 0 0 1 4-4h4a4 4 0 0 1 4 4v2zM2 2h3v6H2V2zm0 8h3v6H2v-6zm0 8h3v6H2v-6zm0 8h3v6H2v-6z"/></symbol><symbol id="icon-envelop" viewBox="0 0 32 32"><path d="M29 4H3C1.35 4 0 5.35 0 7v20c0 1.65 1.35 3 3 3h26c1.65 0 3-1.35 3-3V7c0-1.65-1.35-3-3-3zM12.461 17.199 4 23.789V8.113l8.461 9.086zM5.512 8h20.976L16 15.875 5.512 8zm7.278 9.553L16 21l3.21-3.447L25.79 26H6.211l6.58-8.447zm6.749-.354L28 8.113v15.676l-8.461-6.59z"/></symbol><symbol id="icon-location2" viewBox="0 0 32 32"><path d="M16 0C10.477 0 6 4.477 6 10c0 10 10 22 10 22s10-12 10-22c0-5.523-4.477-10-10-10zm0 16.125a6.125 6.125 0 1 1 0-12.25 6.125 6.125 0 0 1 0 12.25zM12.125 10a3.875 3.875 0 1 1 7.75 0 3.875 3.875 0 0 1-7.75 0z"/></symbol><symbol id="icon-mobile" viewBox="0 0 32 32"><path d="M23 0H9C7.35 0 6 1.35 6 3v26c0 1.65 1.35 3 3 3h14c1.65 0 3-1.35 3-3V3c0-1.65-1.35-3-3-3zM12 1.5h8v1h-8v-1zM16 30a2 2 0 1 1-.001-3.999A2 2 0 0 1 16 30zm8-6H8V4h16v20z"/></symbol><symbol id="icon-user" viewBox="0 0 32 32"><path d="M18 22.082v-1.649c2.203-1.241 4-4.337 4-7.432 0-4.971 0-9-6-9s-6 4.029-6 9c0 3.096 1.797 6.191 4 7.432v1.649C7.216 22.637 2 25.97 2 30h28c0-4.03-5.216-7.364-12-7.918z"/></symbol><symbol id="icon-cross" viewBox="0 0 32 32"><path d="M31.708 25.708 22 16l9.708-9.708a1 1 0 0 0 0-1.414L27.122.292a1 1 0 0 0-1.414-.001L16 9.999 6.292.291a.998.998 0 0 0-1.414.001L.292 4.878a1 1 0 0 0 0 1.414L10 16 .292 25.708a.999.999 0 0 0 0 1.414l4.586 4.586a1 1 0 0 0 1.414 0L16 22l9.708 9.708a1 1 0 0 0 1.414 0l4.586-4.586a.999.999 0 0 0 0-1.414z"/></symbol><symbol id="icon-checkmark" viewBox="0 0 32 32"><path d="M27 4 12 19l-7-7-5 5 12 12L32 9z"/></symbol><symbol id="icon-checkmark2" viewBox="0 0 32 32"><path d="M12.42 28.678-.013 16.44l6.168-6.071 6.265 6.167L25.846 3.322l6.168 6.071L12.42 28.678zM3.372 16.441l9.048 8.905L28.628 9.393l-2.782-2.739L12.42 19.868l-6.265-6.167-2.782 2.739z"/></symbol><symbol id="icon-arrow-right" viewBox="0 0 32 32"><path d="M31 16 16 1v9H0v12h16v9z"/></symbol><symbol id="icon-arrow-left" viewBox="0 0 32 32"><path d="m1 16 15 15v-9h16V10H16V1z"/></symbol><symbol id="icon-arrow-right2" viewBox="0 0 32 32"><path d="m19.414 27.414 10-10a2 2 0 0 0 0-2.828l-10-10a2 2 0 1 0-2.828 2.828L23.172 14H4a2 2 0 1 0 0 4h19.172l-6.586 6.586c-.39.39-.586.902-.586 1.414s.195 1.024.586 1.414a2 2 0 0 0 2.828 0z"/></symbol><symbol id="icon-arrow-left2" viewBox="0 0 32 32"><path d="m12.586 27.414-10-10a2 2 0 0 1 0-2.828l10-10a2 2 0 1 1 2.828 2.828L8.828 14H28a2 2 0 1 1 0 4H8.828l6.586 6.586c.39.39.586.902.586 1.414s-.195 1.024-.586 1.414a2 2 0 0 1-2.828 0z"/></symbol><symbol id="icon-circle-right" viewBox="0 0 32 32"><path d="M16 0C7.163 0 0 7.163 0 16s7.163 16 16 16 16-7.163 16-16S24.837 0 16 0zm0 29C8.82 29 3 23.18 3 16S8.82 3 16 3s13 5.82 13 13-5.82 13-13 13z"/><path d="m11.086 22.086 2.829 2.829 8.914-8.914-8.914-8.914-2.828 2.828 6.086 6.086z"/></symbol><symbol id="icon-circle-left" viewBox="0 0 32 32"><path d="M16 32c8.837 0 16-7.163 16-16S24.837 0 16 0 0 7.163 0 16s7.163 16 16 16zm0-29c7.18 0 13 5.82 13 13s-5.82 13-13 13S3 23.18 3 16 8.82 3 16 3z"/><path d="m20.914 9.914-2.829-2.829-8.914 8.914 8.914 8.914 2.828-2.828-6.086-6.086z"/></symbol><symbol id="icon-facebook" viewBox="0 0 32 32"><path d="M19 6h5V0h-5c-3.86 0-7 3.14-7 7v3H8v6h4v16h6V16h5l1-6h-6V7c0-.542.458-1 1-1z"/></symbol><symbol id="icon-twitter" viewBox="0 0 32 32"><path d="M32 7.075a12.941 12.941 0 0 1-3.769 1.031 6.601 6.601 0 0 0 2.887-3.631 13.21 13.21 0 0 1-4.169 1.594A6.565 6.565 0 0 0 22.155 4a6.563 6.563 0 0 0-6.563 6.563c0 .512.056 1.012.169 1.494A18.635 18.635 0 0 1 2.23 5.195a6.56 6.56 0 0 0-.887 3.3 6.557 6.557 0 0 0 2.919 5.463 6.565 6.565 0 0 1-2.975-.819v.081a6.565 6.565 0 0 0 5.269 6.437 6.574 6.574 0 0 1-2.968.112 6.588 6.588 0 0 0 6.131 4.563 13.17 13.17 0 0 1-9.725 2.719 18.568 18.568 0 0 0 10.069 2.95c12.075 0 18.681-10.006 18.681-18.681 0-.287-.006-.569-.019-.85A13.216 13.216 0 0 0 32 7.076z"/></symbol><symbol id="icon-linkedin" viewBox="0 0 32 32"><path d="M29 0H3C1.35 0 0 1.35 0 3v26c0 1.65 1.35 3 3 3h26c1.65 0 3-1.35 3-3V3c0-1.65-1.35-3-3-3zM12 26H8V12h4v14zm-2-16c-1.106 0-2-.894-2-2s.894-2 2-2c1.106 0 2 .894 2 2s-.894 2-2 2zm16 16h-4v-8c0-1.106-.894-2-2-2s-2 .894-2 2v8h-4V12h4v2.481C18.825 13.35 20.087 12 21.5 12c2.488 0 4.5 2.238 4.5 5v9z"/></symbol><symbol id="icon-pinterest2" viewBox="0 0 32 32"><path d="M16 0C7.175 0 0 7.175 0 16s7.175 16 16 16 16-7.175 16-16S24.825 0 16 0zm0 29.863c-1.431 0-2.806-.219-4.106-.619.563-.919 1.412-2.431 1.725-3.631.169-.65.863-3.294.863-3.294.45.863 1.775 1.594 3.175 1.594 4.181 0 7.194-3.844 7.194-8.625 0-4.581-3.738-8.006-8.544-8.006-5.981 0-9.156 4.019-9.156 8.387 0 2.031 1.081 4.563 2.813 5.369.262.125.4.069.463-.188.044-.194.281-1.131.387-1.575a.427.427 0 0 0-.094-.4c-.575-.694-1.031-1.975-1.031-3.162 0-3.056 2.313-6.019 6.256-6.019 3.406 0 5.788 2.319 5.788 5.637 0 3.75-1.894 6.35-4.356 6.35-1.363 0-2.381-1.125-2.05-2.506.394-1.65 1.15-3.425 1.15-4.613 0-1.063-.569-1.95-1.756-1.95-1.394 0-2.506 1.438-2.506 3.369 0 1.225.412 2.056.412 2.056s-1.375 5.806-1.625 6.887c-.281 1.2-.169 2.881-.05 3.975-5.156-2.012-8.813-7.025-8.813-12.9 0-7.656 6.206-13.863 13.862-13.863s13.863 6.206 13.863 13.863c0 7.656-6.206 13.863-13.863 13.863z"/></symbol></defs></svg>